<?xml version="1.0" encoding="UTF-8"?>
<svg width="181px" height="58px" viewBox="0 0 181 58" version="1.1" xmlns="http://www.w3.org/2000/svg" xmlns:xlink="http://www.w3.org/1999/xlink">
    <title>Strata logo</title>
    <defs>
        <filter color-interpolation-filters="auto" id="filter-1">
            <feColorMatrix in="SourceGraphic" type="matrix" values="0 0 0 0 1.000000 0 0 0 0 1.000000 0 0 0 0 1.000000 0 0 0 1.000000 0"></feColorMatrix>
        </filter>
    </defs>
    <g id="Strata" stroke="none" stroke-width="1" fill="none" fill-rule="evenodd">
        <g transform="translate(-109.000000, -26.000000)" id="Topbar">
            <g id="Strata-logo" transform="translate(95.500000, 15.500000)">
                <path d="M87.3077511,53.6730819 C90.3038992,53.6730819 92.6981426,52.917357 94.4904812,51.4059073 C96.2828199,49.8944575 97.1789892,47.8145422 97.1789892,45.1661612 C97.1254865,43.32032 96.6774019,41.8155581 95.8347352,40.6518755 C94.9920685,39.488193 93.9955818,38.5987115 92.8452749,37.9834311 C91.694968,37.3681507 90.2236452,36.7261189 88.4313066,36.0573359 C86.719222,35.4420554 85.455222,34.8735898 84.6393066,34.351939 C83.8233913,33.8302882 83.4154336,33.1146903 83.4154336,32.2051454 C83.4154336,31.2956004 83.8100156,30.5933782 84.5991796,30.0984787 C85.3883437,29.6035792 86.4784601,29.3561295 87.8695288,29.3561295 C90.3841532,29.3561295 92.9924072,30.1051665 95.6942908,31.6032406 L95.6942908,31.6032406 L95.6942908,26.5873676 C94.5439839,25.9988385 93.2866717,25.5507538 91.9223542,25.2431136 C90.5580368,24.9354734 89.166968,24.7816533 87.7491479,24.7816533 C84.7262484,24.7816533 82.3453807,25.4838755 80.6065447,26.88832 C78.8677087,28.2927644 77.9982908,30.2522988 77.9982908,32.7669232 C77.9982908,34.4790078 78.3861849,35.8767644 79.1619733,36.960193 C79.9377617,38.0436216 80.8740579,38.8796004 81.9708622,39.4681295 C83.0676664,40.0566586 84.4854865,40.671939 86.2243225,41.3139708 C87.508386,41.7954946 88.4981849,42.2034523 89.1937193,42.5378438 C89.8892537,42.8722353 90.471095,43.3002565 90.9392431,43.8219073 C91.4073913,44.3435581 91.6414654,44.978902 91.6414654,45.727939 C91.6414654,46.7979919 91.220132,47.6272829 90.3774654,48.215812 C89.5347987,48.8043411 88.4313066,49.0986057 87.0669892,49.0986057 C84.3383542,49.0986057 81.2352008,48.1623094 77.7575288,46.2897168 L77.7575288,46.2897168 L77.7575288,51.4259708 C79.2556029,52.1215052 80.8473066,52.6699073 82.53264,53.0711771 C84.2179733,53.472447 85.809677,53.6730819 87.3077511,53.6730819 Z M110.661656,53.6730819 C111.383942,53.6730819 112.032661,53.6128914 112.607815,53.4925105 C113.182968,53.3721295 113.804936,53.1915581 114.473719,52.9507962 L114.473719,52.9507962 L114.473719,48.5769549 C113.510672,49.08523 112.668005,49.3393676 111.945719,49.3393676 C110.394143,49.3393676 109.618354,48.3228173 109.618354,46.2897168 L109.618354,46.2897168 L109.618354,36.1777168 L114.433592,36.1777168 L114.433592,32.2452724 L109.618354,32.2452724 L109.618354,24.7816533 L104.321592,26.6274946 L104.321592,32.2452724 L101.271942,32.2452724 L101.271942,36.1777168 L104.321592,36.1777168 L104.321592,46.2897168 C104.321592,51.2119602 106.434947,53.6730819 110.661656,53.6730819 Z M125.187624,53.1915581 L125.187624,38.7057168 C126.498439,37.5554099 128.197148,36.9802565 130.283751,36.9802565 L130.283751,36.9802565 L130.96591,36.9802565 L130.96591,31.7637486 L129.641719,31.7637486 C128.758926,31.7637486 127.956386,32.0045105 127.2341,32.4860343 C126.511815,32.9675581 125.709275,33.8102247 124.826481,35.0140343 L124.826481,35.0140343 L124.30483,32.2452724 L119.008069,32.2452724 L119.890862,36.9000025 L119.890862,53.1915581 L125.187624,53.1915581 Z M142.081084,53.6730819 C144.756217,53.6730819 147.043455,52.6699073 148.942799,50.6635581 L148.942799,50.6635581 L149.464449,53.1915581 L154.761211,53.1915581 L153.878418,48.5368279 L153.878418,39.2273676 C153.878418,36.7929972 153.095942,34.9404681 151.530989,33.6697803 C149.966037,32.3990925 147.698862,31.7637486 144.729465,31.7637486 C143.124386,31.7637486 141.653063,31.9777591 140.315497,32.4057803 C138.977931,32.8338015 137.693867,33.5159602 136.463307,34.4522565 L136.463307,34.4522565 L136.463307,39.1872406 C137.881127,38.143939 139.198629,37.3882142 140.415815,36.920066 C141.633,36.4519179 142.950502,36.2178438 144.368322,36.2178438 C145.812894,36.2178438 146.869571,36.5054205 147.538354,37.0805739 C148.207137,37.6557274 148.541529,38.5318332 148.541529,39.7088914 L148.541529,39.7088914 L148.541529,40.4713041 C147.364471,40.3642988 146.187412,40.3107962 145.010354,40.3107962 C141.746693,40.3107962 139.252132,40.9595157 137.526672,42.2569549 C135.801211,43.5543941 134.938481,45.3667962 134.938481,47.6941612 C134.938481,49.4864999 135.600576,50.9310713 136.924767,52.0278755 C138.248957,53.1246798 139.96773,53.6730819 142.081084,53.6730819 Z M142.883624,49.6202565 C141.118037,49.6202565 140.235243,48.8444681 140.235243,47.2928914 C140.235243,46.1158332 140.589698,45.2999179 141.298608,44.8451454 C142.007518,44.3903729 143.137762,44.1629866 144.689338,44.1629866 L144.689338,44.1629866 L148.541529,44.1629866 L148.541529,47.0120025 C147.605233,47.9215475 146.682312,48.5836427 145.772767,48.9982882 C144.863222,49.4129337 143.900174,49.6202565 142.883624,49.6202565 Z M166.839434,53.6730819 C167.561719,53.6730819 168.210439,53.6128914 168.785592,53.4925105 C169.360746,53.3721295 169.982714,53.1915581 170.651497,52.9507962 L170.651497,52.9507962 L170.651497,48.5769549 C169.688449,49.08523 168.845783,49.3393676 168.123497,49.3393676 C166.57192,49.3393676 165.796132,48.3228173 165.796132,46.2897168 L165.796132,46.2897168 L165.796132,36.1777168 L170.61137,36.1777168 L170.61137,32.2452724 L165.796132,32.2452724 L165.796132,24.7816533 L160.49937,26.6274946 L160.49937,32.2452724 L157.449719,32.2452724 L157.449719,36.1777168 L160.49937,36.1777168 L160.49937,46.2897168 C160.49937,51.2119602 162.612725,53.6730819 166.839434,53.6730819 Z M181.405529,53.6730819 C184.080661,53.6730819 186.367899,52.6699073 188.267243,50.6635581 L188.267243,50.6635581 L188.788894,53.1915581 L194.085656,53.1915581 L193.202862,48.5368279 L193.202862,39.2273676 C193.202862,36.7929972 192.420386,34.9404681 190.855434,33.6697803 C189.290481,32.3990925 187.023307,31.7637486 184.05391,31.7637486 C182.44883,31.7637486 180.977508,31.9777591 179.639942,32.4057803 C178.302375,32.8338015 177.018312,33.5159602 175.787751,34.4522565 L175.787751,34.4522565 L175.787751,39.1872406 C177.205571,38.143939 178.523074,37.3882142 179.740259,36.920066 C180.957444,36.4519179 182.274947,36.2178438 183.692767,36.2178438 C185.137338,36.2178438 186.194016,36.5054205 186.862799,37.0805739 C187.531582,37.6557274 187.865973,38.5318332 187.865973,39.7088914 L187.865973,39.7088914 L187.865973,40.4713041 C186.688915,40.3642988 185.511857,40.3107962 184.334799,40.3107962 C181.071137,40.3107962 178.576576,40.9595157 176.851116,42.2569549 C175.125656,43.5543941 174.262926,45.3667962 174.262926,47.6941612 C174.262926,49.4864999 174.925021,50.9310713 176.249211,52.0278755 C177.573402,53.1246798 179.292174,53.6730819 181.405529,53.6730819 Z M182.208069,49.6202565 C180.442481,49.6202565 179.559688,48.8444681 179.559688,47.2928914 C179.559688,46.1158332 179.914143,45.2999179 180.623053,44.8451454 C181.331963,44.3903729 182.462206,44.1629866 184.013783,44.1629866 L184.013783,44.1629866 L187.865973,44.1629866 L187.865973,47.0120025 C186.929677,47.9215475 186.006756,48.5836427 185.097211,48.9982882 C184.187666,49.4129337 183.224619,49.6202565 182.208069,49.6202565 Z" id="Strata" fill="#1A1C1B" fill-rule="nonzero"></path>
                <g id="Strata-icon" transform="translate(1.931999, 3.346320)">
                    <g filter="url(#filter-1)" id="STRATA-LOGO-Polygon">
                        <g transform="translate(37.313393, 36.051587) rotate(60.000000) translate(-37.313393, -36.051587) translate(12.437798, 7.210317)">
                            <polygon id="Combined-Shape" fill="#000000" points="24.8755952 3.64952795e-11 49.7511905 14.4206349 49.7511905 19.162778 49.7511905 43.2619048 24.8755952 57.6825397 3.45218232e-15 43.2619048 0 14.4206349"></polygon>
                        </g>
                    </g>
                    <g id="S-shape" transform="translate(22.075991, 15.897395)">
                        <path d="M6.76377624,31.8170582 C5.33721987,31.8170582 4.18076743,30.6558788 4.18076743,29.2234915 C4.18076743,27.7911042 5.33721987,26.6299249 6.76377624,26.6299249 L6.76377624,26.6299249 L30.8718584,26.6299249 C32.2984148,26.6299249 33.4548672,27.7911042 33.4548672,29.2234915 C33.4548672,30.6558788 32.2984148,31.8170582 30.8718584,31.8170582 L30.8718584,31.8170582 Z" id="Blue-Copy" fill="#FF5A5E" style="mix-blend-mode: darken;" transform="translate(18.817817, 29.223492) rotate(-45.000000) translate(-18.817817, -29.223492) "></path>
                        <path d="M3.23174958,23.2609762 C1.80519321,23.2609762 0.648740776,22.0997969 0.648740776,20.6674096 C0.648740776,19.2350222 1.80519321,18.0738429 3.23174958,18.0738429 L3.23174958,18.0738429 L27.3398318,18.0738429 C28.7663881,18.0738429 29.9228406,19.2350222 29.9228406,20.6674096 C29.9228406,22.0997969 28.7663881,23.2609762 27.3398318,23.2609762 L27.3398318,23.2609762 Z" id="Blue" fill="#57D3D4" style="mix-blend-mode: darken;"></path>
                        <path d="M-0.284424057,14.7003915 C-1.71098043,14.7003915 -2.86743286,13.5392122 -2.86743286,12.1068249 C-2.86743286,10.6744376 -1.71098043,9.51325821 -0.284424057,9.51325821 L-0.284424057,9.51325821 L23.8236581,9.51325821 C25.2502145,9.51325821 26.4066669,10.6744376 26.4066669,12.1068249 C26.4066669,13.5392122 25.2502145,14.7003915 23.8236581,14.7003915 L23.8236581,14.7003915 Z" id="Blue-Copy-2" fill="#FFBE4A" style="mix-blend-mode: darken;" transform="translate(11.769617, 12.106825) rotate(-45.000000) translate(-11.769617, -12.106825) "></path>
                    </g>
                </g>
            </g>
        </g>
    </g>
</svg>