<svg width="181" height="58" viewBox="0 0 181 58" xmlns="http://www.w3.org/2000/svg"><defs><filter color-interpolation-filters="auto" id="a"><feColorMatrix in="SourceGraphic" values="0 0 0 0 1.000000 0 0 0 0 1.000000 0 0 0 0 1.000000 0 0 0 1.000000 0"/></filter></defs><g fill="none" fill-rule="evenodd"><path d="M73.808 43.173c2.996 0 5.39-.756 7.182-2.267 1.793-1.512 2.689-3.591 2.689-6.24-.054-1.846-.502-3.35-1.344-4.514-.843-1.164-1.84-2.053-2.99-2.669-1.15-.615-2.621-1.257-4.414-1.926-1.712-.615-2.976-1.183-3.792-1.705-.816-.522-1.224-1.237-1.224-2.147 0-.91.395-1.612 1.184-2.107.79-.494 1.88-.742 3.27-.742 2.515 0 5.123.75 7.825 2.247v-5.016a15.944 15.944 0 00-3.772-1.344 18.913 18.913 0 00-4.173-.461c-3.023 0-5.404.702-7.142 2.106-1.74 1.405-2.609 3.364-2.609 5.879 0 1.712.388 3.11 1.164 4.193.776 1.084 1.712 1.92 2.809 2.508 1.097.589 2.514 1.204 4.253 1.846 1.284.481 2.274.89 2.97 1.224a5.531 5.531 0 011.745 1.284c.468.522.702 1.157.702 1.906 0 1.07-.42 1.9-1.264 2.488-.842.588-1.946.883-3.31.883-2.729 0-5.832-.937-9.31-2.81v5.137a25.126 25.126 0 004.776 1.645c1.685.401 3.277.602 4.775.602zm23.354 0a9.54 9.54 0 001.946-.18c.575-.12 1.197-.301 1.866-.542v-4.374c-.963.508-1.806.762-2.528.762-1.552 0-2.328-1.016-2.328-3.05V25.679h4.816v-3.933h-4.816v-7.463l-5.296 1.845v5.618h-3.05v3.933h3.05V35.79c0 4.922 2.113 7.383 6.34 7.383zm14.526-.481V28.206c1.31-1.15 3.01-1.726 5.096-1.726h.682v-5.216h-1.324c-.883 0-1.686.24-2.408.722s-1.525 1.324-2.408 2.528l-.521-2.769h-5.297l.883 4.655v16.292h5.297zm16.893.481c2.675 0 4.962-1.003 6.862-3.01l.521 2.529h5.297l-.883-4.655v-9.31c0-2.434-.782-4.287-2.347-5.557-1.565-1.27-3.832-1.906-6.802-1.906-1.605 0-3.076.214-4.414.642-1.337.428-2.621 1.11-3.852 2.046v4.735c1.418-1.043 2.736-1.799 3.953-2.267 1.217-.468 2.535-.702 3.952-.702 1.445 0 2.502.287 3.17.863.67.575 1.004 1.45 1.004 2.628v.762a38.983 38.983 0 00-3.532-.16c-3.263 0-5.758.649-7.483 1.946-1.726 1.297-2.589 3.11-2.589 5.437 0 1.792.663 3.237 1.987 4.334 1.324 1.097 3.043 1.645 5.156 1.645zm.803-4.053c-1.766 0-2.649-.776-2.649-2.327 0-1.177.355-1.993 1.064-2.448.709-.455 1.839-.682 3.39-.682h3.853v2.849c-.937.91-1.86 1.572-2.77 1.986a6.884 6.884 0 01-2.888.622zm23.955 4.053a9.54 9.54 0 001.947-.18c.575-.12 1.197-.301 1.865-.542v-4.374c-.963.508-1.805.762-2.528.762-1.551 0-2.327-1.016-2.327-3.05V25.679h4.815v-3.933h-4.815v-7.463L147 16.127v5.618h-3.05v3.933H147V35.79c0 4.922 2.114 7.383 6.34 7.383zm14.567 0c2.675 0 4.962-1.003 6.861-3.01l.522 2.529h5.297l-.883-4.655v-9.31c0-2.434-.783-4.287-2.348-5.557-1.565-1.27-3.832-1.906-6.801-1.906-1.605 0-3.076.214-4.414.642-1.338.428-2.622 1.11-3.852 2.046v4.735c1.418-1.043 2.735-1.799 3.952-2.267 1.217-.468 2.535-.702 3.953-.702 1.444 0 2.501.287 3.17.863.669.575 1.003 1.45 1.003 2.628v.762a38.983 38.983 0 00-3.531-.16c-3.264 0-5.758.649-7.484 1.946-1.725 1.297-2.588 3.11-2.588 5.437 0 1.792.662 3.237 1.986 4.334 1.324 1.097 3.043 1.645 5.157 1.645zm.802-4.053c-1.766 0-2.648-.776-2.648-2.327 0-1.177.354-1.993 1.063-2.448.709-.455 1.84-.682 3.39-.682h3.853v2.849c-.936.91-1.86 1.572-2.769 1.986a6.884 6.884 0 01-2.889.622z" fill="#1A1C1B" fill-rule="nonzero"/><g filter="url(#a)" transform="translate(-11.568 -7.154)"><path fill="#000" d="M62.29 21.631l-.05 28.753-4.107 2.371-20.87 12.05-24.927-14.333.051-28.753 24.977-14.42z"/></g><path d="M22.636 48.325a2.588 2.588 0 01-3.66-.008 2.588 2.588 0 01-.008-3.66L36.015 27.61a2.588 2.588 0 013.66.007 2.588 2.588 0 01.008 3.66z" fill="#FF5A5E" style="mix-blend-mode:darken"/><path d="M13.74 32.005a2.588 2.588 0 01-2.583-2.594 2.588 2.588 0 012.583-2.593h24.108a2.588 2.588 0 012.583 2.593 2.588 2.588 0 01-2.583 2.594z" fill="#57D3D4" style="mix-blend-mode:darken"/><path d="M15.588 31.208a2.588 2.588 0 01-3.66-.008 2.588 2.588 0 01-.008-3.66l17.047-17.047a2.588 2.588 0 013.66.008 2.588 2.588 0 01.008 3.66z" fill="#FFBE4A" style="mix-blend-mode:darken"/></g></svg>