<?xml version="1.0" standalone="no"?>
<!DOCTYPE svg PUBLIC "-//W3C//DTD SVG 20010904//EN"
 "http://www.w3.org/TR/2001/REC-SVG-20010904/DTD/svg10.dtd">
<svg version="1.0" xmlns="http://www.w3.org/2000/svg"
 width="512.000000pt" height="512.000000pt" viewBox="0 0 512.000000 512.000000"
 preserveAspectRatio="xMidYMid meet">
<metadata>
Created by potrace 1.14, written by Peter Selinger 2001-2017
</metadata>
<g transform="translate(0.000000,512.000000) scale(0.100000,-0.100000)"
fill="#000000" stroke="none">
<path d="M2535 5081 c-6 -5 -37 -25 -70 -44 -33 -18 -148 -84 -255 -147 -107
-62 -215 -124 -240 -138 -54 -30 -109 -62 -135 -80 -11 -6 -27 -15 -35 -19 -8
-4 -51 -28 -95 -54 -44 -26 -96 -56 -115 -67 -19 -10 -123 -70 -230 -132 -107
-62 -211 -121 -230 -132 -19 -11 -91 -53 -160 -93 -69 -40 -197 -114 -285
-165 -88 -51 -182 -106 -210 -122 -27 -16 -65 -36 -83 -45 l-32 -17 0 -545
c-1 -300 -2 -869 -3 -1264 -1 -396 0 -722 3 -726 3 -4 99 -61 215 -128 326
-189 925 -533 975 -561 87 -49 586 -336 658 -379 41 -24 76 -43 78 -43 2 0 23
-12 46 -26 54 -35 133 -79 184 -106 l41 -20 140 80 c76 44 153 89 170 99 17
10 62 36 100 57 37 22 181 104 318 184 138 80 270 156 295 170 25 13 65 37 90
52 45 27 663 384 925 533 77 44 144 84 150 89 15 14 18 2533 2 2546 -7 5 -37
23 -67 39 -30 17 -127 72 -215 123 -88 51 -176 102 -195 113 -19 11 -96 54
-170 97 -74 43 -151 87 -170 97 -68 39 -405 233 -420 242 -17 10 -776 447
-818 471 -15 8 -48 27 -74 43 -49 29 -68 33 -83 18z"/>
</g>
</svg>
